<svg xmlns="http://www.w3.org/2000/svg" width="82.136" height="65.715" viewBox="0 0 82.136 65.715"><defs><style>.a{fill:#3056f5;opacity:0.099;}</style></defs><path class="a" d="M41.116,49.286H16.473V28.75H8.259V61.608a4.1,4.1,0,0,0,4.107,4.107H45.224a4.1,4.1,0,0,0,4.107-4.107V28.75H41.116ZM81.5,18.251,70.547,1.823A4.13,4.13,0,0,0,67.12,0H15.113A4.09,4.09,0,0,0,11.7,1.823L.751,18.251a4.107,4.107,0,0,0,3.414,6.392H78.081A4.115,4.115,0,0,0,81.5,18.251ZM65.759,63.661a2.06,2.06,0,0,0,2.054,2.054H71.92a2.06,2.06,0,0,0,2.054-2.054V28.75H65.759Z" transform="translate(-0.051)"/></svg>