<svg xmlns="http://www.w3.org/2000/svg" width="140.076" height="173.694" viewBox="0 0 140.076 173.694"><defs><style>.a,.b{fill:#c1c1c1;}.b{opacity:0.348;}.c{fill:#858997;}.d{fill:#4f5760;font-size:21px;font-family:Roboto-Bold, Roboto;font-weight:700;}</style></defs><path class="a" d="M240.769,44.051V32H192V65.743h63.113V44.051Zm0,0" transform="translate(-126.243 -24.983)"/><path class="a" d="M62.9,379.035H32V352H62.9Zm0,0" transform="translate(-20.794 -216.546)"/><path class="b" d="M140.076,84.046V24.054L116.022,0H0V173.694H140.076ZM117.664,9.565l12.848,12.848H117.664Zm16.809,158.527H5.6V5.6H112.061V28.015h22.412v56.03C71.008,84.046,71.008,156.885,134.473,168.091Z"/><path class="c" d="M64.091,334.02,60.573,330.5l-2.23,2.229,5.943,5.943,18.451-21.806-2.41-2.037Zm0,0" transform="translate(-37.912 -186.059)"/><path class="c" d="M49.977,49.173a4.1,4.1,0,0,0-2.964-3.929l-2.756-.787v-.417a5.714,5.714,0,0,0,2.451-4.687V37.72a5.72,5.72,0,0,0-11.44,0v1.634a5.712,5.712,0,0,0,2.451,4.687v.417l-2.756.788A4.1,4.1,0,0,0,32,49.173v2.437H49.977ZM36.9,39.354V37.72a4.086,4.086,0,0,1,8.171,0v1.634a4.086,4.086,0,1,1-8.171,0Zm5.588,5.513-1.5,1.5-1.5-1.5a5.565,5.565,0,0,0,3.005,0Zm5.852,5.109H33.634v-.8a2.462,2.462,0,0,1,1.778-2.358l2.887-.824,2.689,2.689,2.689-2.689,2.887.824a2.464,2.464,0,0,1,1.778,2.358Zm0,0" transform="translate(-20.794 -20.794)"/><path class="c" d="M32,240H82.427v3.576H32Zm0,0" transform="translate(-20.794 -155.954)"/><path class="c" d="M32,240H91.7v3.576H32Zm0,0" transform="translate(37.169 -155.954)"/><path class="c" d="M0,0H90.672V1.744H0ZM0,0" transform="translate(65.757 59.607) rotate(90)"/><path class="c" d="M32,240H82.427v3.415H32Zm0,0" transform="translate(-20.794 -168.112)"/><path class="c" d="M32,240H91.7v3.415H32Zm0,0" transform="translate(37.169 -168.112)"/><path class="c" d="M32,240H82.427v3.482H32Zm0,0" transform="translate(-20.794 -178.244)"/><path class="c" d="M32,272H82.427v3.341H32Zm0,0" transform="translate(-20.794 -176.748)"/><path class="c" d="M32,272H91.7v3.341H32Zm0,0" transform="translate(37.169 -176.748)"/><path class="c" d="M32,304H82.428v3.551H32Zm0,0" transform="translate(-20.794 -197.542)"/><path class="c" d="M32,304H91.7v3.551H32Zm0,0" transform="translate(37.169 -197.542)"/><path class="c" d="M32,304H77.406v3.276H32Zm0,0" transform="translate(37.169 -187.411)"/><path class="c" d="M224,176h59.7v3.6H224Zm0,0" transform="translate(-154.831 -114.367)"/><text class="d" transform="translate(93.247 159.017)"><tspan x="0" y="0">/20</tspan></text></svg>